<svg width="60" height="60" viewBox="0 0 60 60" fill="none" xmlns="http://www.w3.org/2000/svg">
<circle cx="30" cy="30" r="30" fill="#BE3C4C"/>
<path d="M42.0655 21.2271C42.0892 20.8665 42.1129 20.5058 42.1129 20.1331C42.1129 13.9418 33.667 9.15703 29.5978 11.6937C29.5978 11.6937 28.3203 10.8762 26.8772 11.2729C25.4341 11.6696 24.2512 12.6915 23.8253 13.7013C23.3049 14.9757 24.0619 15.3243 24.0619 15.3243C24.0619 15.3243 25.8599 16.5385 29.0655 14.3626C30.1656 13.6172 31.2302 12.9319 32.3776 13.1483C33.3713 13.3407 38.9427 15.3123 38.9427 20.4577C38.9427 20.7222 38.9309 20.9747 38.9072 21.2271" stroke="white" stroke-miterlimit="10" stroke-linecap="round"/>
<mask id="path-3-inside-1" fill="white">
<path fill-rule="evenodd" clip-rule="evenodd" d="M18.7862 16.9833C19.697 18.1495 20.8208 17.5243 21.1993 17.1757C21.8735 16.5626 22.3467 15.6249 23.1038 15.5287C23.4468 15.4806 23.8963 15.5046 24.0619 15.5407L24.3103 15.4205C23.9081 15.3363 23.3758 15.2762 22.8435 15.3724C21.8144 15.5407 21.2584 16.7309 20.667 16.7068C20.0637 16.6948 19.4841 16.7309 19.1056 16.5385C19.7089 17.1997 20.3358 16.8511 20.324 17.1156C20.3121 17.2839 19.5551 17.3801 18.7862 16.9833Z"/>
</mask>
<path fill-rule="evenodd" clip-rule="evenodd" d="M18.7862 16.9833C19.697 18.1495 20.8208 17.5243 21.1993 17.1757C21.8735 16.5626 22.3467 15.6249 23.1038 15.5287C23.4468 15.4806 23.8963 15.5046 24.0619 15.5407L24.3103 15.4205C23.9081 15.3363 23.3758 15.2762 22.8435 15.3724C21.8144 15.5407 21.2584 16.7309 20.667 16.7068C20.0637 16.6948 19.4841 16.7309 19.1056 16.5385C19.7089 17.1997 20.3358 16.8511 20.324 17.1156C20.3121 17.2839 19.5551 17.3801 18.7862 16.9833Z" fill="white"/>
<path d="M18.7862 16.9833L19.2447 16.0947L17.9981 17.5989L18.7862 16.9833ZM21.1993 17.1757L20.5265 16.4358L20.5218 16.4401L21.1993 17.1757ZM23.1038 15.5287L23.2298 16.5208L23.2426 16.519L23.1038 15.5287ZM24.0619 15.5407L23.8491 16.5178L24.1866 16.5913L24.4975 16.4408L24.0619 15.5407ZM24.3103 15.4205L24.7459 16.3206L27.3868 15.0426L24.5151 14.4417L24.3103 15.4205ZM22.8435 15.3724L23.0049 16.3593L23.0131 16.3579L23.0213 16.3565L22.8435 15.3724ZM20.667 16.7068L20.7076 15.7077L20.6973 15.7072L20.6869 15.707L20.667 16.7068ZM19.1056 16.5385L19.5586 15.647L18.3668 17.2125L19.1056 16.5385ZM20.324 17.1156L21.3215 17.1857L21.3224 17.173L21.323 17.1603L20.324 17.1156ZM17.9981 17.5989C18.6671 18.4555 19.5195 18.7374 20.3138 18.6402C21.0211 18.5536 21.5825 18.1822 21.8768 17.9112L20.5218 16.4401C20.4375 16.5178 20.2479 16.6333 20.0709 16.655C19.9991 16.6638 19.9389 16.6564 19.8795 16.6316C19.8202 16.6068 19.7117 16.5437 19.5743 16.3678L17.9981 17.5989ZM21.8721 17.9155C22.0875 17.7196 22.2758 17.5081 22.4331 17.3252C22.6045 17.1258 22.7227 16.9807 22.8565 16.8353C22.9839 16.6968 23.0766 16.6136 23.1484 16.5642C23.1817 16.5414 23.2039 16.5304 23.2161 16.5253C23.222 16.5228 23.2258 16.5217 23.2275 16.5212C23.2284 16.521 23.229 16.5209 23.2293 16.5208C23.2296 16.5207 23.2297 16.5207 23.2298 16.5207L22.9777 14.5367C22.2187 14.6331 21.7 15.1384 21.3845 15.4813C21.221 15.659 21.0472 15.8694 20.9166 16.0213C20.7719 16.1896 20.6482 16.3252 20.5265 16.4359L21.8721 17.9155ZM23.2426 16.519C23.3422 16.505 23.4818 16.4992 23.6238 16.5028C23.6917 16.5046 23.7518 16.5083 23.7981 16.5126C23.8509 16.5175 23.8646 16.5212 23.8491 16.5178L24.2747 14.5636C23.9783 14.4991 23.4085 14.4762 22.9649 14.5384L23.2426 16.519ZM24.4975 16.4408L24.7459 16.3206L23.8747 14.5204L23.6263 14.6406L24.4975 16.4408ZM24.5151 14.4417C24.0461 14.3435 23.373 14.2605 22.6657 14.3883L23.0213 16.3565C23.3786 16.2919 23.7702 16.3291 24.1055 16.3993L24.5151 14.4417ZM22.6821 14.3855C21.8381 14.5235 21.2432 15.0717 20.9125 15.3773C20.7109 15.5636 20.6129 15.6581 20.5211 15.7253C20.4267 15.7944 20.5116 15.6997 20.7076 15.7077L20.6264 17.706C21.1181 17.726 21.4943 17.4915 21.7026 17.339C21.9136 17.1845 22.1298 16.9755 22.2697 16.8462C22.6221 16.5207 22.8198 16.3896 23.0049 16.3593L22.6821 14.3855ZM20.6869 15.707C20.3247 15.6998 20.1073 15.7073 19.8637 15.6922C19.757 15.6856 19.68 15.6758 19.6242 15.6645C19.5683 15.6531 19.5519 15.6436 19.5586 15.647L18.6526 17.43C19.0299 17.6218 19.4381 17.6697 19.7404 17.6884C20.032 17.7064 20.406 17.7018 20.6471 17.7066L20.6869 15.707ZM18.3668 17.2125C18.6094 17.4783 18.8734 17.6618 19.1423 17.7826C19.4076 17.9018 19.6484 17.9467 19.8226 17.9683C19.9031 17.9782 19.9819 17.9844 20.0152 17.9873C20.0689 17.992 20.0462 17.9919 20.0057 17.9828C19.9769 17.9764 19.7791 17.9343 19.5951 17.7515C19.494 17.6512 19.417 17.5279 19.3712 17.3921C19.3275 17.2625 19.3215 17.149 19.325 17.0709L21.323 17.1603C21.3338 16.9178 21.2678 16.594 21.0044 16.3324C20.786 16.1155 20.5365 16.0521 20.4411 16.0308C20.3341 16.0069 20.23 15.9985 20.1903 15.995C20.1301 15.9897 20.1031 15.9877 20.0683 15.9834C19.9911 15.9738 19.9365 15.9656 19.8443 15.8645L18.3668 17.2125ZM19.3264 17.0455C19.3526 16.6725 19.5769 16.4584 19.676 16.3821C19.7801 16.302 19.8678 16.2737 19.8882 16.2673C19.9367 16.2522 19.9305 16.2627 19.8547 16.2615C19.7157 16.2593 19.4866 16.2194 19.2447 16.0947L18.3277 17.872C18.8547 18.144 19.3886 18.2544 19.8233 18.2612C20.0343 18.2645 20.2676 18.2442 20.4854 18.1761C20.5904 18.1432 20.7453 18.0829 20.896 17.9669C21.0418 17.8547 21.2923 17.6008 21.3215 17.1857L19.3264 17.0455Z" fill="white" mask="url(#path-3-inside-1)"/>
<path d="M28.5687 36.0863V42.4339" stroke="white" stroke-miterlimit="10" stroke-linecap="round"/>
<path d="M28.6791 27.6034L28.6791 32.3586" stroke="white" stroke-miterlimit="10" stroke-linecap="round"/>
<path d="M31.4313 40.8951V34.4153" stroke="white" stroke-miterlimit="10" stroke-linecap="round"/>
<path d="M31.3209 30.7735L31.3209 27.6034" stroke="white" stroke-miterlimit="10" stroke-linecap="round"/>
<path d="M17 21.2271C18.6797 24.7135 23.8608 27.2502 30 27.2502C36.1392 27.2502 41.3203 24.7135 43 21.2271H17Z" stroke="white" stroke-miterlimit="10" stroke-linecap="round"/>
<path d="M30.5678 42.3858C30.3785 42.3858 30.1893 42.3738 30 42.3738C26.5105 42.3738 23.3876 43.3356 21.2584 44.8503H23.6952H26.8298" stroke="white" stroke-miterlimit="10" stroke-linecap="round"/>
<path d="M31.0567 44.8623H38.7416C37.3812 43.8886 35.3112 43.047 33.3003 42.6383" stroke="white" stroke-miterlimit="10" stroke-linecap="round"/>
<path d="M31.4313 38.2623C31.4313 38.2623 33.5447 38.5628 33.6985 40.9071C33.9114 44.2012 27.8865 45.5675 27.6224 48.4735C27.626 48.5905 27.637 48.7045 27.6545 48.8156C27.8204 49.8664 27.2156 51.336 26.4504 50.5969C25.961 50.1242 25.5814 49.4828 25.434 48.6132C24.9727 43.9968 31.4431 43.6361 31.4431 40.9071" stroke="white" stroke-miterlimit="10" stroke-linecap="round"/>
<path d="M28.6791 36.0571C33.4343 32.8869 40.5869 30.6283 41.5923 23.2949" stroke="white" stroke-miterlimit="10" stroke-linecap="round"/>
<path d="M37.9845 25.6392C36.1037 29.5223 32.5432 30.3278 29.0182 32.5158C28.8999 32.5879 28.7461 32.6721 28.5687 32.7803C27.3858 33.4655 25.162 34.812 25.4104 37.024C25.7061 39.5847 28.1507 39.4914 28.1507 39.4914" stroke="white" stroke-miterlimit="10" stroke-linecap="round"/>
</svg>
