<svg width="60" height="60" viewBox="0 0 60 60" fill="none" xmlns="http://www.w3.org/2000/svg">
<circle cx="30" cy="30" r="30" fill="#BE3C4C"/>
<g clip-path="url(#clip0)">
<path d="M45 27.7135C44.5553 27.9068 44.1454 28.0649 43.753 28.2581C42.8024 28.7324 42.2792 29.4439 42.0612 30.5506C41.7036 32.3863 41.3374 34.2659 40.6223 35.9787C39.2444 39.2725 36.7329 41.0116 33.0615 40.9238C31.457 40.8886 29.8436 41.0028 28.2391 41.1346C25.3177 41.3805 23.1986 43.0142 21.4545 45.2452C21.219 45.5438 21.001 45.8513 20.7743 46.1411C18.4807 45.0783 17.4343 43.1284 17.8441 40.7657C17.9575 40.1157 18.2366 39.7907 18.9168 39.6238C22.0649 38.8772 25.0822 37.8057 27.6722 35.7503C27.8118 35.6449 27.9426 35.522 28.0734 35.399C28.1083 35.3639 28.1257 35.3024 28.1693 35.2321C26.8961 34.67 25.5967 34.1869 24.3671 33.5457C20.2772 31.4289 16.9198 28.5479 15.1233 24.1387C14.1205 21.7232 13.7978 19.176 14.1205 16.4093C14.7047 16.8221 15.1844 17.191 15.6902 17.5072C20.2249 20.3442 25.1433 22.2327 30.2797 23.6292C31.1169 23.8576 31.9802 24.0948 32.7476 24.49C34.7446 25.5177 35.7562 27.2041 35.7998 29.479C35.8085 29.7688 35.9306 30.0587 36.0091 30.3573C36.3318 30.2695 36.7329 30.2695 36.9596 30.0675C37.448 29.6547 37.8579 29.154 38.2852 28.6621C38.5555 28.3547 38.7648 27.9946 39.0264 27.6696C40.8577 25.4298 43.0204 25.4211 45 27.7135Z" stroke="white" stroke-miterlimit="10" stroke-linecap="round"/>
<path d="M29.0936 23.2955C28.8756 17.639 34.0033 13.6952 37.0555 12C36.8462 13.0979 36.6195 14.1344 36.4713 15.1708C36.0614 18.1308 36.2096 21.0733 37.1253 23.9015C37.5264 25.1575 37.0904 29.5229 36.0003 30.3573" stroke="white" stroke-miterlimit="10" stroke-linecap="round"/>
</g>
<defs>
<clipPath id="clip0">
<rect width="42" height="38" fill="white" transform="translate(7 12)"/>
</clipPath>
</defs>
</svg>
