<svg width="23" height="23" viewBox="0 0 23 23" fill="none" xmlns="http://www.w3.org/2000/svg">
<g clip-path="url(#clip0_20_333)">
<path d="M12.3536 11.4762C12.3536 11.9676 11.9675 12.3536 11.4762 12.3536C10.9849 12.3536 10.5988 11.9676 10.5988 11.4762C10.5988 10.9849 10.9849 10.5989 11.4762 10.5989C11.9675 10.5989 12.3536 10.9849 12.3536 11.4762ZM22.9875 11.4762C22.9875 11.8273 22.7067 12.0728 22.3909 12.0728H19.899C19.5832 16.214 16.2842 19.5482 12.1078 19.864V22.3559C12.1078 22.707 11.827 22.9525 11.5113 22.9525C11.1602 22.9525 10.9147 22.6717 10.9147 22.3559V19.864C6.77353 19.5482 3.43935 16.2492 3.12349 12.0728H0.631591C0.280537 12.0728 0 11.792 0 11.4762C0 11.1605 0.280794 10.8797 0.631591 10.8797H3.12349C3.43929 6.73853 6.73831 3.40434 10.9147 3.08849V0.59659C10.9147 0.245536 11.1955 0 11.5113 0C11.8623 0 12.1078 0.280794 12.1078 0.59659V3.08849C16.249 3.40429 19.5832 6.70331 19.899 10.8797H22.3909C22.7067 10.8447 22.9875 11.1252 22.9875 11.4762ZM18.6708 11.4762C18.6708 7.51041 15.4421 4.2817 11.4763 4.2817C7.5105 4.2817 4.28173 7.51047 4.28173 11.4762C4.28173 15.442 7.5105 18.6357 11.4763 18.6357C15.4421 18.671 18.6708 15.4422 18.6708 11.4762Z" fill="#204EE9" stroke="#204EE9"/>
</g>
<defs>
<clipPath id="clip0_20_333">
<rect width="23" height="23" fill="white"/>
</clipPath>
</defs>
</svg>
