<svg width="80" height="80" viewBox="0 0 80 80" fill="none" xmlns="http://www.w3.org/2000/svg">
<path d="M80 40C80 62.0914 62.0914 80 40 80C17.9086 80 0 62.0914 0 40C0 17.9086 17.9086 0 40 0C62.0914 0 80 17.9086 80 40Z" fill="#242834"/>
<g clip-path="url(#clip0)">
<path d="M40.3733 11.9986C40.5656 15.6909 40.7112 19.3869 40.9669 23.0745C41.1349 25.4974 41.5839 27.8886 42.5387 30.1417C44.3083 34.3155 47.462 36.9139 51.7936 38.1301C54.5031 38.8907 57.2881 39.1493 60.0825 39.2995C62.7201 39.4414 65.3605 39.5189 67.9991 39.6253C67.9991 39.8745 67.9991 40.1227 67.9991 40.3719C64.0287 40.5941 60.0527 40.7537 56.0888 41.0617C53.6836 41.2483 51.3251 41.7869 49.1336 42.8602C45.3265 44.7259 42.9773 47.7854 41.8545 51.837C41.1069 54.5343 40.8465 57.3026 40.6963 60.0811C40.5535 62.7187 40.4769 65.3591 40.3724 67.9986C40.1232 67.9986 39.8749 67.9986 39.6257 67.9986C39.4027 64.0123 39.2449 60.0214 38.9332 56.0417C38.7456 53.6533 38.2043 51.3097 37.1384 49.1322C35.2232 45.2215 32.0545 42.8714 27.8919 41.7785C25.2776 41.0925 22.6027 40.8395 19.9175 40.6967C17.2799 40.5567 14.6395 40.4783 12 40.3719C12 40.1227 12 39.8745 12 39.6253C15.9863 39.4022 19.9763 39.2426 23.956 38.9318C26.3295 38.7461 28.6591 38.2113 30.8235 37.1575C34.6511 35.2946 37.0189 32.2295 38.1417 28.1593C38.9948 25.0653 39.2057 21.8873 39.3644 18.7046C39.4755 16.4702 39.5408 14.2339 39.6276 11.9977C39.8759 11.9986 40.1241 11.9986 40.3733 11.9986Z" fill="white"/>
</g>
<defs>
<clipPath id="clip0">
<rect width="56" height="56" fill="white" transform="translate(12 12)"/>
</clipPath>
</defs>
</svg>
