<svg width="69" height="69" viewBox="0 0 69 69" fill="none" xmlns="http://www.w3.org/2000/svg">
<circle cx="34.5" cy="34.5" r="34.5" fill="#242834"/>
<g clip-path="url(#clip0_13_3193)">
<path d="M34.8221 10.3489C34.9879 13.5335 35.1135 16.7213 35.3341 19.9019C35.479 21.9917 35.8662 24.0541 36.6897 25.9973C38.216 29.5973 40.9361 31.8384 44.6721 32.8873C47.009 33.5434 49.4111 33.7664 51.8213 33.896C54.0962 34.0184 56.3736 34.0852 58.6493 34.1769C58.6493 34.3919 58.6493 34.606 58.6493 34.8209C55.2248 35.0125 51.7955 35.1502 48.3767 35.4158C46.3022 35.5768 44.268 36.0413 42.3778 36.9671C39.0942 38.5763 37.068 41.2151 36.0996 44.7096C35.4548 47.036 35.2302 49.4236 35.1006 51.8201C34.9775 54.0951 34.9114 56.3724 34.8213 58.6489C34.6064 58.6489 34.3922 58.6489 34.1773 58.6489C33.9849 55.2108 33.8489 51.7686 33.58 48.3361C33.4182 46.2761 32.9513 44.2547 32.032 42.3767C30.3801 39.0037 27.6471 36.9767 24.0568 36.0341C21.802 35.4424 19.4949 35.2243 17.1789 35.1011C14.904 34.9803 12.6266 34.9127 10.3501 34.8209C10.3501 34.606 10.3501 34.3919 10.3501 34.1769C13.7883 33.9846 17.2296 33.8469 20.6621 33.5788C22.7093 33.4186 24.7185 32.9574 26.5853 32.0485C29.8866 30.4417 31.9289 27.7981 32.8973 24.2875C33.6331 21.6189 33.815 18.8779 33.9519 16.1329C34.0477 14.2057 34.104 12.2769 34.1789 10.3481C34.393 10.3489 34.6072 10.3489 34.8221 10.3489Z" fill="white"/>
</g>
<defs>
<clipPath id="clip0_13_3193">
<rect width="48.3" height="48.3" fill="white" transform="translate(10.3501 10.3501)"/>
</clipPath>
</defs>
</svg>
