<svg width="60" height="60" viewBox="0 0 60 60" fill="none" xmlns="http://www.w3.org/2000/svg">
<rect width="60" height="60" rx="30" fill="#BE3C4C"/>
<path d="M42.0655 20.3286C42.0892 19.9679 42.1128 19.6072 42.1128 19.2346C42.1128 13.0432 33.667 8.25847 29.5978 10.7951C29.5978 10.7951 28.3203 9.97762 26.8772 10.3743C25.434 10.7711 24.2511 11.7929 23.8253 12.8028C23.3048 14.0771 24.0619 14.4258 24.0619 14.4258C24.0619 14.4258 25.8599 15.64 29.0655 13.464C30.1656 12.7186 31.2302 12.0334 32.3776 12.2498C33.3713 12.4421 38.9427 14.4137 38.9427 19.5591C38.9427 19.8236 38.9309 20.0761 38.9072 20.3286M28.5687 35.1878V41.5354M28.6791 26.7048V31.46M31.4313 39.9966V33.5167M31.3209 29.875V26.7048M30.5678 41.4873C30.3785 41.4873 30.1892 41.4752 30 41.4752C26.5104 41.4752 23.3876 42.437 21.2584 43.9518H26.8298M31.0567 43.9638H38.7415C37.3812 42.99 35.3111 42.1485 33.3002 41.7397M31.4313 37.3637C31.4313 37.3637 33.5447 37.6643 33.6985 40.0086C33.9114 43.3026 27.8865 44.669 27.6224 47.575C27.626 47.6919 27.637 47.8059 27.6545 47.917C27.8204 48.9678 27.2156 50.4374 26.4504 49.6983C25.961 49.2256 25.5814 48.5843 25.434 47.7147C24.9727 43.0982 31.4431 42.7376 31.4431 40.0086M28.6791 35.1585C33.4343 31.9884 40.5869 29.7298 41.5924 22.3963M37.9845 24.7406C36.1037 28.6237 32.5432 29.4292 29.0182 31.6172C28.8999 31.6893 28.7461 31.7735 28.5687 31.8817C27.3858 32.567 25.1619 33.9134 25.4104 36.1255C25.7061 38.6861 28.1507 38.5929 28.1507 38.5929M24 14.2566C24 14.2566 22.6024 13.9587 21.7778 14.8715C20.6667 16.1011 20.6667 16.1011 19.0002 16.1011M17 20.3286C18.6797 23.815 23.8608 26.3516 30 26.3516C36.1392 26.3516 41.3203 23.815 43 20.3286H17Z" stroke="white"/>
</svg>
