<svg width="60" height="60" viewBox="0 0 60 60" fill="none" xmlns="http://www.w3.org/2000/svg">
<rect width="60" height="60" rx="30" fill="#BE3C4C"/>
<path d="M40.479 26.5309L40.047 26.2792L40.479 26.5309ZM29.7202 30.1011L29.4685 30.5332L29.7202 30.1011ZM27.5173 18.9814L27.0853 18.7298L27.5173 18.9814ZM38.2762 15.4112L38.0246 15.8433L38.2762 15.4112ZM34.4056 31.3012C34.5699 31.0793 34.5233 30.7661 34.3014 30.6018C34.0795 30.4374 33.7664 30.484 33.602 30.7059L34.4056 31.3012ZM24.2419 44.1817L24.6389 44.4858L24.6437 44.4793L24.2419 44.1817ZM19.7608 44.9536L20.0373 44.537L20.0341 44.5349L19.7608 44.9536ZM18.643 40.5005L18.2034 40.2622L18.2024 40.2641L18.643 40.5005ZM26.9433 26.2419C27.075 25.9991 26.9849 25.6956 26.7421 25.564C26.4994 25.4324 26.1959 25.5225 26.0642 25.7652L26.9433 26.2419ZM20.5349 37.0641C20.3039 36.9127 19.994 36.9773 19.8426 37.2082C19.6912 37.4392 19.7558 37.7491 19.9867 37.9005L20.5349 37.0641ZM26.0563 41.8786C26.2873 42.03 26.5972 41.9654 26.7486 41.7345C26.8999 41.5035 26.8354 41.1936 26.6045 41.0422L26.0563 41.8786ZM23.9479 35.1204C23.7912 35.3478 23.8484 35.6591 24.0758 35.8158C24.3031 35.9726 24.6145 35.9153 24.7712 35.6879L23.9479 35.1204ZM26.0263 33.8671C26.183 33.6397 26.1258 33.3284 25.8984 33.1717C25.6711 33.0149 25.3597 33.0722 25.203 33.2996L26.0263 33.8671ZM40.047 26.2792C37.7928 30.1495 33.2632 31.5861 29.9718 29.6691L29.4685 30.5332C33.3356 32.7856 38.44 31.0253 40.9111 26.7825L40.047 26.2792ZM29.9718 29.6691C26.6804 27.752 25.6952 23.1034 27.9494 19.2331L27.0853 18.7298C24.6141 22.9725 25.6014 28.2808 29.4685 30.5332L29.9718 29.6691ZM27.9494 19.2331C30.2036 15.3628 34.7331 13.9262 38.0246 15.8433L38.5279 14.9791C34.6607 12.7268 29.5564 14.4871 27.0853 18.7298L27.9494 19.2331ZM38.0246 15.8433C41.316 17.7603 42.3012 22.4089 40.047 26.2792L40.9111 26.7825C43.3822 22.5398 42.395 17.2315 38.5279 14.9791L38.0246 15.8433ZM33.602 30.7059L23.8401 43.8841L24.6437 44.4793L34.4056 31.3012L33.602 30.7059ZM23.845 43.8777C22.9325 45.069 21.2742 45.3581 20.0373 44.537L19.4843 45.3702C21.1694 46.4887 23.4137 46.0851 24.6388 44.4858L23.845 43.8777ZM20.0341 44.5349C18.7844 43.7193 18.3706 42.0659 19.0836 40.7369L18.2024 40.2641C17.2484 42.0424 17.7955 44.2681 19.4875 45.3723L20.0341 44.5349ZM19.0825 40.7388L26.9433 26.2419L26.0642 25.7652L18.2034 40.2622L19.0825 40.7388ZM19.9867 37.9005L26.0563 41.8786L26.6045 41.0422L20.5349 37.0641L19.9867 37.9005ZM24.7712 35.6879L26.0263 33.8671L25.203 33.2996L23.9479 35.1204L24.7712 35.6879ZM26.5697 20.2516C26.6878 20.4584 26.7578 20.7733 26.8657 21.2952C26.9672 21.786 27.0937 22.3968 27.3493 23.065C27.8688 24.423 28.9001 25.9659 31.2388 27.4275L31.7688 26.5795C29.6075 25.2287 28.7221 23.8549 28.2833 22.7077C28.0597 22.1233 27.9466 21.5844 27.845 21.0927C27.7498 20.6323 27.6531 20.132 27.4379 19.7555L26.5697 20.2516ZM31.2388 27.4275C34.3665 29.3823 37.6751 29.3511 39.1251 28.9886L38.8825 28.0185C37.6658 28.3226 34.6411 28.3748 31.7688 26.5795L31.2388 27.4275Z" fill="white"/>
</svg>
