<svg width="29" height="29" viewBox="0 0 29 29" fill="none" xmlns="http://www.w3.org/2000/svg">
<path d="M28.9394 22.5822C28.8588 22.3394 28.3459 21.9815 27.4011 21.5097C27.1451 21.3609 26.7804 21.1588 26.3085 20.9024C25.8361 20.6459 25.4074 20.4096 25.0231 20.1937C24.6379 19.9778 24.2771 19.7687 23.94 19.5665C23.8861 19.5261 23.7174 19.4082 23.4341 19.2121C23.1504 19.0165 22.9112 18.8714 22.7151 18.7768C22.5195 18.6827 22.3271 18.6353 22.1381 18.6353C21.8683 18.6353 21.5312 18.8277 21.1265 19.2121C20.7218 19.5969 20.3506 20.0149 20.0134 20.4674C19.6761 20.9196 19.3184 21.3376 18.941 21.7222C18.5629 22.107 18.2523 22.2992 18.0097 22.2992C17.8879 22.2992 17.736 22.2652 17.554 22.1982C17.3721 22.1308 17.2337 22.073 17.1387 22.0264C17.0445 21.9788 16.883 21.8847 16.6534 21.7425C16.4234 21.6008 16.2955 21.5232 16.2685 21.5097C14.4198 20.4839 12.8343 19.3098 11.5116 17.9878C10.1894 16.6651 9.01517 15.0798 7.9896 13.231C7.97613 13.2039 7.89835 13.0757 7.75677 12.8464C7.61497 12.6169 7.52046 12.4552 7.47324 12.3605C7.42602 12.2661 7.36866 12.1277 7.3013 11.9456C7.23395 11.7635 7.20013 11.6118 7.20013 11.4902C7.20013 11.2474 7.39248 10.9369 7.77711 10.559C8.16168 10.1814 8.58013 9.82364 9.03205 9.48653C9.48432 9.14942 9.90235 8.77821 10.2871 8.37353C10.6716 7.96865 10.8639 7.63147 10.8639 7.36164C10.8639 7.17285 10.8167 6.98036 10.7223 6.78476C10.6279 6.58874 10.4828 6.34953 10.2871 6.06602C10.0912 5.78265 9.97317 5.61413 9.93262 5.5599C9.73041 5.22279 9.52147 4.86186 9.3053 4.47725C9.08912 4.09271 8.85317 3.66408 8.59665 3.19184C8.34034 2.71982 8.13807 2.35534 7.98946 2.09898C7.51741 1.15458 7.15986 0.641579 6.91688 0.560899C6.82237 0.520418 6.68057 0.5 6.49184 0.5C6.12727 0.5 5.65167 0.567351 5.06469 0.702478C4.47749 0.837393 4.01544 0.9789 3.67803 1.12757C3.00327 1.4108 2.2881 2.2339 1.53231 3.59658C0.844078 4.86476 0.5 6.11997 0.5 7.36129C0.5 7.72534 0.52361 8.07953 0.570829 8.42394C0.618049 8.768 0.70242 9.15601 0.824013 9.58791C0.945394 10.0197 1.04331 10.3404 1.11733 10.5493C1.19142 10.7583 1.32974 11.1327 1.53223 11.6726C1.73444 12.2124 1.85604 12.5428 1.89652 12.6643C2.36878 13.9868 2.92882 15.1674 3.5765 16.2065C4.64213 17.9337 6.09636 19.7186 7.93834 21.5606C9.7804 23.4025 11.5651 24.8566 13.2925 25.9226C14.3315 26.5701 15.5127 27.1301 16.835 27.6026C16.9566 27.6429 17.287 27.7642 17.8266 27.9671C18.3665 28.1695 18.741 28.3078 18.95 28.382C19.1591 28.4563 19.48 28.5543 19.9114 28.6759C20.3437 28.7975 20.7314 28.8818 21.0755 28.9294C21.4198 28.976 21.7741 29 22.1382 29C23.3795 29 24.6349 28.6557 25.9034 27.9676C27.266 27.2122 28.0889 26.4969 28.3723 25.8217C28.5213 25.4846 28.6625 25.0225 28.7974 24.4353C28.9328 23.8484 29 23.3729 29 23.0085C29.0004 22.819 28.9801 22.6775 28.9394 22.5822Z" fill="#204EE9"/>
<line x1="23.546" y1="5.18194" x2="15.0607" y2="13.6672" stroke="#204EE9" stroke-width="1.5" stroke-linecap="round"/>
<path d="M24.6069 9.42465L24.0766 4.65168L19.3036 4.12135" stroke="#204EE9" stroke-width="1.5" stroke-linecap="round"/>
</svg>
