<svg viewBox="0 0 167 174" fill="none" xmlns="http://www.w3.org/2000/svg">
<ellipse cx="83.5" cy="86.8303" rx="83.5" ry="86.7649" fill="white"/>
<g clip-path="url(#clip0_13_3007)">
<path d="M137.512 31.332C122.768 16.0113 104.714 8.50732 83.9515 8.50732C62.8885 8.50732 45.1353 16.0113 30.3912 31.332C15.647 46.6526 8.12451 65.4126 8.12451 86.9865C8.12451 108.873 15.647 127.633 30.3912 142.954C45.1353 158.274 62.8885 166.091 83.9515 166.091C102.908 166.091 119.157 159.525 133.299 147.018C133.901 146.706 134.202 146.393 134.202 146.08C135.406 145.142 136.308 143.892 137.512 142.954C152.256 127.633 159.779 108.873 159.779 86.9865C159.779 65.4126 152.256 46.6526 137.512 31.332ZM83.9515 12.572C103.51 12.572 120.661 19.7633 134.804 34.4586C148.645 49.1539 155.566 66.6632 155.566 86.9865C155.566 107.623 148.645 125.132 134.804 139.827C120.661 154.21 103.51 161.714 83.9515 161.714C64.0921 161.714 47.2416 154.21 33.4002 139.827C19.2578 125.132 12.3371 107.623 12.3371 86.9865C12.3371 66.6632 19.2578 49.1539 33.4002 34.4586C47.2416 19.7633 64.0921 12.572 83.9515 12.572Z" fill="#204EE9"/>
<path d="M132.698 36.6474C119.157 22.5774 102.908 15.6987 83.9517 15.6987C64.995 15.6987 48.7463 22.5774 35.5067 36.6474C21.9661 50.4047 15.0454 67.2887 15.0454 87.2993C15.0454 106.997 21.9661 123.881 35.5067 137.639C48.7463 151.709 64.995 158.587 83.9517 158.587C102.908 158.587 119.157 151.709 132.698 137.639C145.937 123.881 152.858 106.997 152.858 87.2993C152.858 67.2887 145.937 50.4047 132.698 36.6474ZM83.9517 20.0761C101.705 20.0761 116.75 26.642 129.689 39.774C142.026 52.5933 148.344 68.5393 148.344 86.9866C148.344 105.747 142.026 121.38 129.689 134.512C116.75 147.644 101.705 154.21 83.9517 154.21C65.8977 154.21 50.8526 147.644 38.5157 134.512C25.8778 121.38 19.258 105.747 19.258 86.9866C19.258 68.5393 25.8778 52.5933 38.5157 39.774C50.8526 26.642 65.8977 20.0761 83.9517 20.0761Z" fill="#204EE9"/>
<path d="M85.155 41.6499H71.6144V87.6118L46.9405 43.2132C23.4703 66.3505 20.4613 93.2398 38.5153 123.256L56.5694 122.943C40.6216 104.183 36.7099 86.6738 44.5333 69.7898L85.155 142.328V92.6145H89.9694V123.881H102.607V92.6145H126.679C126.98 102.932 121.564 113.563 110.732 123.881L126.679 123.256C138.414 110.436 142.326 94.8031 138.715 76.6685C132.697 48.5285 116.75 32.8952 89.9694 29.7686V79.4825H85.155V41.6499ZM126.378 79.4825H102.607V47.5905C114.342 52.2805 122.166 62.5985 126.378 79.4825Z" fill="#204EE9"/>
<path d="M157.473 158.587C157.473 162.473 154.446 165.591 150.751 165.591C147.057 165.591 144.03 162.473 144.03 158.587C144.03 154.701 147.057 151.583 150.751 151.583C154.446 151.583 157.473 154.701 157.473 158.587Z" stroke="#204EE9"/>
<path d="M148.008 154.614H151.025C151.674 154.614 152.227 154.711 152.684 154.907C153.141 155.102 153.49 155.391 153.732 155.774C153.979 156.153 154.102 156.622 154.102 157.18C154.102 157.606 154.023 157.981 153.867 158.305C153.711 158.629 153.49 158.903 153.205 159.125C152.92 159.344 152.58 159.514 152.186 159.635L151.74 159.852H149.027L149.016 158.686H151.049C151.4 158.686 151.693 158.624 151.928 158.499C152.162 158.374 152.338 158.204 152.455 157.989C152.576 157.77 152.637 157.524 152.637 157.25C152.637 156.954 152.578 156.696 152.461 156.477C152.348 156.254 152.172 156.084 151.934 155.967C151.695 155.846 151.393 155.786 151.025 155.786H149.479V163.145H148.008V154.614ZM152.877 163.145L150.873 159.313L152.414 159.307L154.447 163.069V163.145H152.877Z" fill="#204EE9"/>
</g>
<defs>
<clipPath id="clip0_13_3007">
<rect width="151.654" height="157.584" fill="white" transform="translate(8.12451 8.50732)"/>
</clipPath>
</defs>
</svg>
