<svg width="60" height="60" viewBox="0 0 60 60" fill="none" xmlns="http://www.w3.org/2000/svg">
<rect width="60" height="60" rx="30" fill="#BE3C4C"/>
<path d="M29.5937 24.2249C29.3757 18.5684 34.5034 14.6246 37.5556 12.9294C37.3463 14.0274 37.1195 15.0638 36.9713 16.1003C36.5614 19.0603 36.7097 22.0027 37.6253 24.831C38.0265 26.087 37.5904 30.4523 36.5004 31.2868M45.5 28.643C45.0553 28.8362 44.6454 28.9943 44.253 29.1875C43.3024 29.6618 42.7792 30.3733 42.5612 31.48C42.2036 33.3157 41.8374 35.1954 41.1223 36.9082C39.7444 40.2019 37.2329 41.9411 33.5615 41.8532C31.957 41.8181 30.3436 41.9323 28.7391 42.064C25.8177 42.31 23.6986 43.9437 21.9545 46.1747C21.719 46.4733 21.501 46.7807 21.2743 47.0706C18.9807 46.0078 17.9343 44.0579 18.3441 41.6951C18.4575 41.0451 18.7366 40.7202 19.4168 40.5533C22.5649 39.8067 25.5822 38.7351 28.1722 36.6798C28.3118 36.5744 28.4426 36.4514 28.5734 36.3285C28.6083 36.2933 28.6257 36.2318 28.6693 36.1616C27.3961 35.5994 26.0967 35.1163 24.8671 34.4752C20.7772 32.3583 17.4198 29.4774 15.6233 25.0681C14.6205 22.6527 14.2978 20.1055 14.6205 17.3387C15.2047 17.7515 15.6844 18.1204 16.1902 18.4366C20.7249 21.2737 25.6433 23.1621 30.7797 24.5587C31.6169 24.787 32.4802 25.0242 33.2476 25.4195C35.2446 26.4471 36.2562 28.1335 36.2998 30.4084C36.3085 30.6983 36.4306 30.9881 36.5091 31.2868C36.8318 31.1989 37.2329 31.1989 37.4596 30.9969C37.948 30.5841 38.3579 30.0834 38.7852 29.5916C39.0555 29.2842 39.2648 28.924 39.5264 28.599C41.3577 26.3593 43.5204 26.3505 45.5 28.643Z" stroke="white" stroke-miterlimit="10" stroke-linecap="round"/>
</svg>
