<svg xmlns="http://www.w3.org/2000/svg" width="36" height="36" fill="none"><g clip-path="url(#a)"><path fill="#2CB742" d="m0 36 3.096-9.287A17.596 17.596 0 0 1 .621 17.69C.62 7.92 8.54 0 18.31 0 28.08 0 36 7.92 36 17.69c0 9.77-7.92 17.69-17.69 17.69a17.61 17.61 0 0 1-8.23-2.032L0 36Z"/><path fill="#fff" d="M27.833 22.77c-.695-1.313-3.256-2.814-3.256-2.814-.58-.33-1.279-.367-1.61.222 0 0-.832.998-1.043 1.141-.967.655-1.863.63-2.767-.274l-2.101-2.101-2.101-2.101c-.904-.904-.93-1.8-.275-2.767.144-.212 1.142-1.044 1.142-1.044.589-.33.552-1.03.222-1.609 0 0-1.501-2.561-2.814-3.256a1.439 1.439 0 0 0-1.69.255l-.928.927c-2.944 2.944-1.494 6.267 1.449 9.21l2.69 2.69 2.69 2.69c2.944 2.943 6.267 4.393 9.21 1.45l.928-.928a1.44 1.44 0 0 0 .254-1.691Z"/></g><defs><clipPath id="a"><path fill="#fff" d="M0 0h36v36H0z"/></clipPath></defs></svg>