<svg width="61" height="60" viewBox="0 0 61 60" fill="none" xmlns="http://www.w3.org/2000/svg">
<path fill-rule="evenodd" clip-rule="evenodd" d="M30.1308 32.7278C23.3097 32.7278 21.9503 36.8182 21.9503 40.9083C21.9503 44.9984 23.3158 54.5445 24.6751 57.2753C26.0344 60.0063 27.3999 60 27.3999 60H32.8555C32.8555 60 34.2209 60 35.5802 57.2753C36.9396 54.5506 38.305 44.9984 38.305 40.9083C38.305 36.8182 36.9519 32.7278 30.1308 32.7278ZM45.1324 24.5474C45.1324 16.2262 38.452 9.54587 30.1308 9.54587C21.8095 9.54587 15.1292 16.2261 15.1292 24.5474C15.1292 29.0478 17.0396 33.0035 20.1747 35.7282C20.5849 34.7729 20.9951 34.0932 21.5401 33.2728C19.2194 31.0931 17.8601 27.9519 17.8601 24.5474C17.8601 17.7263 23.3158 12.2706 30.1369 12.2706C36.958 12.2706 42.4137 17.7263 42.4137 24.5474C42.4137 28.0927 40.9137 31.2278 38.593 33.4135C39.138 34.0932 39.6827 34.9139 39.9583 35.7342C43.0873 33.0035 45.1324 29.0478 45.1324 24.5474ZM35.5866 24.5474C35.5866 21.5471 33.1311 19.0918 30.1308 19.0918C27.1305 19.0918 24.6751 21.5471 24.6751 24.5474C24.6751 27.5478 27.1305 30.0031 30.1308 30.0031C33.1311 30.0031 35.5866 27.5478 35.5866 24.5474ZM30.1308 0C16.6294 0 5.58334 11.046 5.58334 24.5474C5.58334 34.3689 11.3084 42.8247 19.6297 46.7741C19.495 45.6844 19.3541 44.5944 19.3541 43.4984C12.8086 39.6776 8.30812 32.7218 8.30812 24.5413C8.30812 12.5401 18.1295 2.71865 30.1308 2.71865C42.132 2.71865 51.9535 12.5401 51.9535 24.5413C51.9535 32.5871 47.4531 39.6776 40.9073 43.4984C40.9073 44.4537 40.7727 45.5434 40.632 46.7741C48.9531 42.684 54.6782 34.3628 54.6782 24.5474C54.6782 11.046 43.6321 0 30.1308 0Z" fill="#204EE9"/>
</svg>
