<svg width="201" height="66" viewBox="0 0 201 66" fill="none" xmlns="http://www.w3.org/2000/svg">
<g clip-path="url(#clip0)">
<path d="M0 46.2223V9.22858H11.8145C20.4645 9.22858 24.7858 12.8507 24.7858 20.0879C24.7858 22.267 24.3202 24.1213 23.3817 25.651C22.4433 27.1735 20.7991 28.4073 18.442 29.3381L26.3717 46.2223H18.5875L11.7418 30.4277H7.34771V46.2223H0ZM7.34771 14.2145V25.752H11.5308C12.8258 25.752 13.8588 25.6222 14.63 25.3624C15.4011 25.1026 15.9976 24.7274 16.4341 24.244C16.8197 23.7606 17.0816 23.1617 17.2271 22.4546C17.3726 21.7474 17.4454 20.9249 17.4454 19.9869C17.4454 19.0488 17.3726 18.2263 17.2271 17.5192C17.0816 16.812 16.7979 16.1915 16.3614 15.672C15.452 14.7051 13.7206 14.2145 11.1743 14.2145H7.34771Z" fill="#204EE9"/>
<path d="M27.3829 46.2223L38.841 9.22858H44.9665L56.4246 46.2223H49.0769L46.9162 38.2709H36.8913L34.7307 46.2223H27.3829ZM45.5412 33.285L41.9401 19.8786H41.7946L38.1935 33.285H45.5412Z" fill="#204EE9"/>
<path d="M60.0258 46.2223V9.22858H70.9091C75.1359 9.22858 78.3441 10.0584 80.5266 11.7251C82.7091 13.3847 83.8076 15.7442 83.8076 18.7891V36.0918C83.8076 39.5552 82.6436 42.1095 80.3156 43.7547C77.9876 45.3998 74.6339 46.2223 70.2616 46.2223H60.0258ZM67.3735 14.2145V41.2365H70.7636C72.8297 41.2365 74.292 40.8612 75.1577 40.1181C76.0234 39.3749 76.4526 38.2059 76.4526 36.6113V18.7891C76.4526 17.3316 76.0452 16.2059 75.2304 15.4122C74.4156 14.6185 72.9243 14.2145 70.7636 14.2145H67.3735Z" fill="#204EE9"/>
<path d="M90.937 46.2223V9.22858H98.2847V46.2223H90.937Z" fill="#204EE9"/>
<path d="M142.99 46.2223V9.22858H150.053L161.148 31.5172H161.293V9.22858H168.641V46.2223H161.723L150.483 23.9842H150.337V46.2223H142.99Z" fill="#204EE9"/>
<path d="M171.958 46.2223L183.417 9.22858H189.542L201 46.2223H193.652L191.492 38.2709H181.474L179.313 46.2223H171.958ZM190.117 33.285L186.516 19.8786H186.37L182.769 33.285H190.117Z" fill="#204EE9"/>
<path d="M127.967 30.9977V28.5949H132.441V26.6684H127.967V24.2657H132.441V22.3391H127.967V19.9364H132.441V18.0098H127.967V15.6071H132.441V12.5549C132.441 5.62086 126.773 0 119.782 0C112.791 0 107.124 5.62086 107.124 12.5549V15.6071H111.598V18.0098H107.124V19.9364H111.598V22.3391H107.124V24.2657H111.598V26.6684H107.124V28.5949H111.598V30.9977H107.124V34.0499C107.124 40.9839 112.791 46.6048 119.782 46.6048C126.773 46.6048 132.441 40.9839 132.441 34.0499V30.9977H127.967Z" fill="#204EE9"/>
<path d="M133.365 43.2136C130.578 47.7521 125.537 50.7898 119.782 50.7898C114.057 50.7898 109.045 47.7882 106.244 43.2857" stroke="#204EE9" stroke-width="5" stroke-miterlimit="10" stroke-linecap="round"/>
<path d="M119.79 50.7898V64.1962" stroke="#204EE9" stroke-width="5" stroke-miterlimit="10" stroke-linecap="round"/>
<path d="M113.089 64.1962H125.668" stroke="#204EE9" stroke-width="5" stroke-miterlimit="10" stroke-linecap="round"/>
</g>
<defs>
<clipPath id="clip0">
<rect width="201" height="66" fill="white"/>
</clipPath>
</defs>
</svg>
