<svg width="69" height="70" viewBox="0 0 69 70" fill="none" xmlns="http://www.w3.org/2000/svg">
<circle cx="34.5" cy="35" r="34.5" fill="#EE3124"/>
<g clip-path="url(#clip0_13_3177)">
<path d="M53.508 25.5094C53.0527 23.8133 51.7069 22.4778 50.0004 22.0237C46.9076 21.2002 34.5001 21.2002 34.5001 21.2002C34.5001 21.2002 22.0926 21.2002 18.9998 22.0237C17.2933 22.4778 15.9475 23.8133 15.4922 25.5094C14.6626 28.5854 14.6626 35.0002 14.6626 35.0002C14.6626 35.0002 14.6626 41.415 15.4922 44.491C15.9475 46.1871 17.2933 47.5226 18.9998 47.9766C22.0926 48.8002 34.5001 48.8002 34.5001 48.8002C34.5001 48.8002 46.9076 48.8002 50.0004 47.9766C51.7069 47.5226 53.0527 46.1871 53.508 44.491C54.3376 41.415 54.3376 35.0002 54.3376 35.0002C54.3376 35.0002 54.3376 28.5854 53.508 25.5094Z" fill="white"/>
<path d="M30.4424 40.8252V29.1753L40.812 35.0002L30.4424 40.8252Z" fill="#EE3124"/>
</g>
<defs>
<clipPath id="clip0_13_3177">
<rect width="39.675" height="27.6" fill="white" transform="translate(14.6626 21.2002)"/>
</clipPath>
</defs>
</svg>
