<svg width="69" height="69" viewBox="0 0 69 69" fill="none" xmlns="http://www.w3.org/2000/svg">
<circle cx="34.5" cy="34.5" r="34.5" fill="url(#paint0_linear_13_3186)"/>
<g clip-path="url(#clip0_13_3186)">
<path d="M40.5361 34.0688C40.5361 30.9726 38.0268 28.462 34.9306 28.462C31.8343 28.462 29.3236 30.9726 29.3236 34.0688C29.3236 37.1649 31.8343 39.6755 34.9306 39.6755C38.0268 39.6755 40.5361 37.1649 40.5361 34.0688ZM43.5672 34.0688C43.5672 38.8385 39.7005 42.705 34.9306 42.705C30.1606 42.705 26.294 38.8385 26.294 34.0688C26.294 29.299 30.1606 25.4325 34.9306 25.4325C39.7005 25.4325 43.5672 29.299 43.5672 34.0688ZM27.9705 25.0901C27.9705 26.2041 27.0669 27.109 25.9516 27.109C24.8376 27.109 23.9327 26.2042 23.9327 25.0901C23.9327 23.976 24.8362 23.0727 25.9516 23.0727C27.0669 23.0727 27.9705 23.9762 27.9705 25.0901ZM41.7262 47.7589C43.366 47.6842 44.2573 47.4111 44.8496 47.1801C45.6348 46.8744 46.1946 46.5104 46.7843 45.9221C47.3726 45.3339 47.738 44.7741 48.0423 43.9889C48.2733 43.3967 48.5464 42.5054 48.6211 40.8657C48.7025 39.0927 48.719 38.5601 48.719 34.0689C48.719 29.5777 48.7013 29.0463 48.6211 27.2722C48.5464 25.6324 48.2719 24.7426 48.0423 24.1489C47.7366 23.3637 47.3726 22.804 46.7843 22.2143C46.196 21.626 45.6362 21.2607 44.8496 20.9563C44.2573 20.7253 43.366 20.4523 41.7262 20.3776C39.9532 20.2961 39.4206 20.2797 34.9306 20.2797C30.439 20.2797 29.9078 20.2973 28.1335 20.3776C26.4937 20.4523 25.6038 20.7267 25.0102 20.9563C24.2249 21.2607 23.6651 21.626 23.0755 22.2143C22.4872 22.8026 22.1232 23.3637 21.8174 24.1489C21.5864 24.7412 21.3134 25.6324 21.2386 27.2722C21.1572 29.0465 21.1408 29.5777 21.1408 34.0689C21.1408 38.5589 21.157 39.0915 21.2386 40.8657C21.3134 42.5054 21.5878 43.3967 21.8174 43.9889C22.1232 44.7741 22.4872 45.3339 23.0755 45.9221C23.6638 46.5104 24.2249 46.8744 25.0102 47.1801C25.6024 47.4111 26.4937 47.6842 28.1335 47.7589C29.9065 47.8403 30.4392 47.8568 34.9306 47.8568C39.4207 47.8566 39.9534 47.8403 41.7262 47.7589ZM41.8649 17.3518C43.6555 17.4333 44.8783 17.7172 45.9475 18.1331C47.0533 18.5625 47.9908 19.1384 48.9268 20.0731C49.8615 21.0077 50.4375 21.9451 50.8669 23.0523C51.2826 24.1214 51.5665 25.3441 51.6481 27.1347C51.731 28.9281 51.75 29.5013 51.75 34.0688C51.75 38.6362 51.731 39.2094 51.6481 41.0028C51.5667 42.7934 51.2828 44.0161 50.8669 45.0852C50.4375 46.191 49.8629 47.1298 48.9268 48.0644C47.9922 48.9991 47.0547 49.5738 45.9475 50.0044C44.8769 50.4201 43.6555 50.704 41.8649 50.7857C40.0703 50.8671 39.4982 50.8875 34.9306 50.8875C30.3615 50.8875 29.7896 50.8685 27.9962 50.7857C26.2056 50.7042 24.9828 50.4203 23.9136 50.0044C22.8078 49.5737 21.8703 48.9991 20.9343 48.0644C19.9996 47.1298 19.4248 46.191 18.9942 45.0852C18.5785 44.0161 18.2932 42.7934 18.213 41.0028C18.1315 39.2081 18.1125 38.6362 18.1125 34.0688C18.1125 29.5013 18.1315 28.9281 18.213 27.1347C18.2944 25.3441 18.5784 24.1214 18.9942 23.0523C19.425 21.9465 19.9996 21.0091 20.9343 20.0731C21.869 19.1384 22.8078 18.5625 23.9124 18.1331C24.983 17.7174 26.2058 17.4321 27.995 17.3518C29.7883 17.2704 30.3615 17.25 34.9292 17.25C39.4982 17.25 40.0701 17.269 41.8649 17.3518Z" fill="white"/>
</g>
<defs>
<linearGradient id="paint0_linear_13_3186" x1="16.3875" y1="6.9" x2="54.3375" y2="62.1" gradientUnits="userSpaceOnUse">
<stop stop-color="#5D3ECB"/>
<stop offset="0.329789" stop-color="#B23096"/>
<stop offset="0.784838" stop-color="#E8255E"/>
<stop offset="1" stop-color="#D82B7E"/>
</linearGradient>
<clipPath id="clip0_13_3186">
<rect width="33.6375" height="33.6375" fill="white" transform="matrix(-1 0 0 1 51.75 17.25)"/>
</clipPath>
</defs>
</svg>
