<svg width="200" height="100" viewBox="0 0 200 100" fill="none" xmlns="http://www.w3.org/2000/svg">
<path d="M26.087 14.9323H16.2774V41.6926H9.67699V14.9323H0V9.57416H26.087V14.9323Z" fill="#204EE9"/>
<path d="M106.875 41.6926H100.256V14.9323H91.723L91.1964 26.2718C90.9766 30.0947 90.4916 33.1082 89.7452 35.3047C88.9988 37.5049 87.9038 39.1124 86.4678 40.1346C85.0317 41.1568 83.0653 41.6736 80.5721 41.6888H78.8557V36.3763L79.9545 36.2661C81.6103 36.0457 82.7962 35.0843 83.5086 33.3856C84.2209 31.687 84.6718 28.6621 84.8612 24.3072L85.4106 9.57036H106.875V41.6926Z" fill="#204EE9"/>
<path d="M120.724 21.1531H125.869C129.639 21.1531 132.625 22.0689 134.834 23.9005C137.039 25.7322 138.145 28.1985 138.145 31.3032C138.145 34.423 137.05 36.9235 134.857 38.8159C132.663 40.7046 129.749 41.666 126.112 41.6964H114.082V9.57416H120.724V21.1531ZM120.724 26.4922V36.3763H125.979C127.665 36.3763 129.01 35.9127 130.014 34.9854C131.018 34.0582 131.522 32.8156 131.522 31.2575C131.522 29.8021 131.041 28.6507 130.082 27.8071C129.12 26.9596 127.805 26.5226 126.134 26.496H120.724V26.4922Z" fill="#204EE9"/>
<path d="M154.237 28.5671H150.433V41.6926H143.833V9.57416H150.433V22.4337H153.445L161.277 9.57416H169.328L159.451 24.7746L170.359 41.6964H162.486L154.237 28.5671Z" fill="#204EE9"/>
<path d="M200 26.3592C200 29.5209 199.443 32.295 198.329 34.6777C197.215 37.0603 195.62 38.8996 193.544 40.1916C191.467 41.4874 189.088 42.1335 186.405 42.1335C183.749 42.1335 181.381 41.495 179.301 40.2144C177.217 38.9338 175.607 37.1059 174.462 34.7309C173.318 32.3558 172.738 29.6235 172.723 26.534V24.9456C172.723 21.7839 173.292 18.9984 174.428 16.5968C175.565 14.1951 177.172 12.3483 179.244 11.06C181.32 9.77178 183.692 9.12957 186.36 9.12957C189.027 9.12957 191.399 9.77178 193.475 11.06C195.552 12.3483 197.155 14.1913 198.291 16.5968C199.428 19.0022 199.996 21.7763 199.996 24.9228V26.3592H200ZM193.312 24.9038C193.312 21.5369 192.71 18.9756 191.509 17.2276C190.308 15.4795 188.591 14.6017 186.364 14.6017C184.151 14.6017 182.442 15.4643 181.237 17.1934C180.036 18.9224 179.426 21.4533 179.411 24.7936V26.3592C179.411 29.6387 180.013 32.1848 181.214 33.9936C182.415 35.8025 184.147 36.7069 186.405 36.7069C188.618 36.7069 190.319 35.8367 191.509 34.0924C192.695 32.3482 193.297 29.8097 193.312 26.4694V24.9038Z" fill="#204EE9"/>
<path d="M27.1213 77.874C26.8713 81.332 25.5982 84.0491 23.3059 86.0366C21.0098 88.024 17.9862 89.0159 14.2313 89.0159C10.1241 89.0159 6.8959 87.6288 4.54296 84.8585C2.19002 82.0883 1.01165 78.2806 1.01165 73.443V71.4784C1.01165 68.3889 1.55347 65.668 2.6409 63.3158C3.72454 60.9635 5.27802 59.1585 7.29374 57.9006C9.30946 56.6428 11.651 56.0158 14.3222 56.0158C18.0165 56.0158 20.9946 57.0076 23.2528 58.995C25.511 60.9787 26.8144 63.768 27.1668 67.3553H20.5664C20.4035 65.2804 19.8314 63.7794 18.8387 62.8445C17.8498 61.9097 16.3418 61.4423 14.3185 61.4423C12.1171 61.4423 10.4727 62.2327 9.38145 63.8136C8.29023 65.3944 7.72947 67.8455 7.69916 71.1706V73.5988C7.69916 77.0683 8.22203 79.6068 9.27157 81.2104C10.3211 82.8141 11.9731 83.6159 14.2313 83.6159C16.2698 83.6159 17.7891 83.1485 18.797 82.2137C19.8011 81.2788 20.377 79.8348 20.5248 77.8777H27.1213V77.874Z" fill="#204EE9"/>
<path d="M50.7228 74.6509H38.0525V83.2543H52.9203V88.5707H31.4559V56.4522H52.8787V61.8142H38.0525V69.4676H50.7228V74.6509Z" fill="#204EE9"/>
<path d="M77.7986 61.8104H63.4347V88.5707H56.8343V56.4522H77.7948V61.8104H77.7986Z" fill="#204EE9"/>
<path d="M106.724 73.2373C106.724 76.399 106.167 79.173 105.053 81.5557C103.939 83.9384 102.343 85.7776 100.271 87.0697C98.1946 88.3655 95.8151 89.0115 93.1325 89.0115C90.4765 89.0115 88.1084 88.3731 86.0282 87.0925C83.9443 85.8118 82.334 83.984 81.1897 81.6089C80.0455 79.2339 79.4658 76.5016 79.4506 73.4121V71.8237C79.4506 68.662 80.019 65.8765 81.1556 63.4748C82.2923 61.0694 83.8988 59.2263 85.9714 57.9381C88.044 56.6498 90.4158 56.0076 93.0871 56.0076C95.7545 56.0076 98.1264 56.6498 100.203 57.9381C102.279 59.2263 103.882 61.0694 105.018 63.4748C106.155 65.8803 106.724 68.6544 106.724 71.8009V73.2373ZM100.036 71.7819C100.036 68.415 99.4336 65.8537 98.2325 64.1056C97.0314 62.3576 95.315 61.4798 93.0871 61.4798C90.8743 61.4798 89.1655 62.3424 87.9606 64.0714C86.7595 65.8005 86.1495 68.3314 86.1343 71.6717V73.2373C86.1343 76.5168 86.7368 79.0629 87.9379 80.8717C89.139 82.6805 90.8705 83.585 93.1287 83.585C95.3415 83.585 97.0427 82.7147 98.2325 80.9705C99.4184 79.2262 100.021 76.6878 100.036 73.3475V71.7819Z" fill="#204EE9"/>
<path d="M140.487 96.4673H134.394V88.5707H115.082V96.4445H108.834L108.482 83.2505H110.903C112.206 82.1637 113.214 80.5639 113.926 78.451C114.639 76.342 115.116 73.7275 115.366 70.6076L116.291 56.4446H137.274V83.2467H141.014L140.487 96.4673ZM118.469 83.2543H130.677V61.8104H122.561L122.012 70.2618C121.572 75.924 120.39 80.2523 118.469 83.2543Z" fill="#204EE9"/>
<path d="M170.533 88.5707H163.933V74.8067H151.066V88.5707H144.465V56.4522H151.066V69.4676H163.933V56.4522H170.533V88.5707Z" fill="#204EE9"/>
<path d="M191.1 88.5707V76.988H185.735L179.949 88.5707H172.822L179.661 74.8713C176.361 73.0473 174.713 70.2162 174.713 66.3781C174.713 63.2316 175.739 60.7957 177.793 59.0743C179.847 57.3528 182.711 56.4788 186.394 56.4484H197.723V88.5669H191.1V88.5707ZM181.313 66.8645C181.313 68.6581 181.749 69.9616 182.62 70.771C183.492 71.5804 184.803 71.9832 186.545 71.9832H191.1V61.8142H186.545C183.056 61.8104 181.313 63.4938 181.313 66.8645Z" fill="#204EE9"/>
<path d="M52.064 3C38.7118 3 27.8867 13.8569 27.8867 27.2485C27.8867 40.64 38.7118 51.4969 52.064 51.4969C65.4163 51.4969 76.2414 40.64 76.2414 27.2485C76.2414 13.8569 65.4163 3 52.064 3ZM52.064 47.3928C40.97 47.3928 31.9788 38.3752 31.9788 27.2485C31.9788 16.1218 40.97 7.10411 52.064 7.10411C63.1581 7.10411 72.1493 16.1218 72.1493 27.2485C72.1493 38.3752 63.1581 47.3928 52.064 47.3928Z" fill="#204EE9"/>
<path d="M52.1701 6.51131L31.2437 27.4993L52.1701 48.4873L73.0965 27.4993L52.1701 6.51131ZM52.1701 44.3109L35.4078 27.4993L52.1701 10.6876L68.9325 27.4993L52.1701 44.3109Z" fill="#204EE9"/>
</svg>
