<svg xmlns="http://www.w3.org/2000/svg" width="172" height="51" viewBox="0 0 172 51" fill="none">
  <path d="M6.36655 0H165.633C169.139 0 172 2.86343 172 6.37178V44.6282C172 48.1366 169.139 51 165.633 51H6.36655C2.86108 51 0 48.1624 0 44.6282V6.37178C0 2.86343 2.86108 0 6.36655 0Z" fill="#051938"/>
  <path d="M165.633 1.03187C168.598 1.03187 170.995 3.43096 170.995 6.39757V44.6282C170.995 47.5948 168.598 49.9939 165.633 49.9939H6.36655C3.40237 49.9939 1.00524 47.5948 1.00524 44.6282V6.37178C1.00524 3.40516 3.40237 1.00607 6.36655 1.00607H165.633V1.03187ZM165.633 0H6.36655C2.86108 0 0 2.86343 0 6.37178V44.6282C0 48.1366 2.86108 51 6.36655 51H165.633C169.139 51 172 48.1366 172 44.6282V6.37178C172 2.86343 169.139 0 165.633 0Z" fill="white"/>
  <path d="M86.812 27.7315C83.822 27.7315 81.3991 30.1821 81.3991 33.1746C81.3991 36.167 83.8478 38.5919 86.8378 38.5919C89.8277 38.5919 92.2506 36.1412 92.2506 33.1488C92.2764 31.7041 91.7093 30.3111 90.6783 29.2793C89.6473 28.2732 88.2554 27.7057 86.812 27.7315ZM86.812 36.4507C85.4717 36.5539 84.2087 35.8058 83.6158 34.5934C83.023 33.3809 83.255 31.9363 84.1829 30.9302C85.1108 29.95 86.5285 29.6146 87.7915 30.1048C89.0545 30.5949 89.8793 31.8073 89.8793 33.1488C89.9308 34.0001 89.6215 34.8255 89.0545 35.4447C88.4616 36.0638 87.6626 36.4249 86.812 36.4507ZM74.9295 27.7315C71.9395 27.7315 69.5166 30.1821 69.5166 33.1746C69.5166 36.167 71.9653 38.5919 74.9553 38.5919C77.9452 38.5919 80.3681 36.1412 80.3681 33.1488C80.3939 31.7041 79.8268 30.3111 78.7958 29.2793C77.7906 28.2732 76.3987 27.7057 74.9295 27.7315ZM74.9295 36.4507C73.5891 36.5539 72.3261 35.8058 71.7333 34.5934C71.1405 33.3809 71.3725 31.9363 72.3004 30.9302C73.2283 29.95 74.6459 29.6146 75.9089 30.1048C77.1719 30.5949 77.9968 31.8073 77.9968 33.1488C78.0483 34.0001 77.739 34.8255 77.1719 35.4447C76.5791 36.0638 75.7801 36.4249 74.9295 36.4507ZM60.8303 29.4082V31.7041H66.3462C66.2689 32.7876 65.8049 33.7937 65.0832 34.5934C63.9749 35.7284 62.4284 36.3475 60.8303 36.2702C57.4537 36.2702 54.7215 33.5357 54.7215 30.1563C54.7215 26.777 57.4537 24.0425 60.8303 24.0425C62.3768 24.0167 63.8976 24.6101 65.0059 25.6935L66.6298 24.0683C65.0832 22.5463 63.0212 21.7208 60.856 21.7466C57.763 21.6177 54.8761 23.217 53.278 25.8483C51.7057 28.5054 51.7057 31.8073 53.278 34.4644C54.8504 37.1214 57.763 38.695 60.856 38.5661C63.0727 38.6435 65.1863 37.7922 66.7329 36.2186C68.0732 34.7482 68.7949 32.8134 68.7176 30.8271C68.7176 30.3369 68.6918 29.8726 68.6145 29.4082H60.8303ZM118.542 31.1882C117.871 29.1761 116.016 27.8089 113.902 27.7315C112.484 27.7315 111.144 28.299 110.19 29.3309C109.237 30.3627 108.721 31.7299 108.824 33.1488C108.799 35.5479 110.345 37.6632 112.639 38.3597C114.933 39.0562 117.408 38.1791 118.722 36.167L116.866 34.9029C116.299 35.8316 115.294 36.3991 114.211 36.3991C113.077 36.4507 112.046 35.78 111.582 34.7482L118.825 31.7557L118.542 31.1882ZM111.17 32.994C111.118 32.1943 111.402 31.4204 111.917 30.8013C112.459 30.2079 113.206 29.8468 114.005 29.821C114.83 29.7694 115.629 30.2079 116.016 30.956L111.17 32.994ZM105.267 38.2565H107.639V22.3142H105.267V38.2565ZM101.375 28.9439H101.298C100.576 28.1442 99.5193 27.7057 98.4367 27.7315C95.5499 27.8604 93.2816 30.2595 93.2816 33.1488C93.2816 36.038 95.5499 38.4371 98.4367 38.5661C99.5193 38.5919 100.576 38.1275 101.298 37.302H101.375V38.0759C101.375 40.1655 100.267 41.2747 98.4883 41.2747C97.2768 41.2489 96.1943 40.475 95.7561 39.34L93.694 40.1913C94.4673 42.1518 96.3747 43.4416 98.4883 43.4158C101.272 43.4158 103.592 41.7648 103.592 37.7664V28.041H101.375V28.9439ZM98.6429 36.4507C96.916 36.3475 95.5499 34.9029 95.5499 33.1746C95.5499 31.4462 96.8902 30.0016 98.6429 29.8984C99.4678 29.9242 100.241 30.3111 100.782 30.9302C101.324 31.5494 101.607 32.3491 101.53 33.1746C101.607 34.0001 101.324 34.8255 100.782 35.4447C100.241 36.038 99.4678 36.3991 98.6429 36.4507ZM129.702 22.3142H124.006V38.2565H126.377V32.2201H129.702C131.558 32.3491 133.311 31.4462 134.29 29.8468C135.27 28.2474 135.244 26.2611 134.29 24.6875C133.337 23.1139 131.558 22.1852 129.702 22.3142ZM129.702 29.9758H126.377V24.5327H129.754C131.249 24.5327 132.486 25.7451 132.486 27.2671C132.486 28.7891 131.275 30.0016 129.754 30.0016L129.702 29.9758ZM144.42 27.6799C142.642 27.5767 140.966 28.5312 140.167 30.1048L142.281 30.9818C142.719 30.2079 143.57 29.7436 144.472 29.821C145.09 29.7436 145.709 29.9242 146.173 30.3111C146.663 30.6981 146.946 31.2656 147.024 31.8847V32.0395C146.25 31.6268 145.4 31.4204 144.549 31.4204C142.281 31.4204 139.961 32.6844 139.961 35.0061C140.013 36.0122 140.451 36.9409 141.198 37.6116C141.946 38.2823 142.925 38.5919 143.931 38.5145C145.142 38.5919 146.302 37.9985 146.972 36.9667H147.049V38.2307H149.343V32.0911C149.343 29.3051 147.23 27.6799 144.523 27.6799H144.42ZM144.111 36.4249C143.338 36.4249 142.255 36.038 142.255 35.0835C142.255 33.8195 143.595 33.3809 144.807 33.3809C145.554 33.3551 146.302 33.5357 146.972 33.9227C146.817 35.3673 145.606 36.4507 144.162 36.4765L144.111 36.4249ZM157.643 28.041L154.911 34.9545H154.834L151.998 28.041H149.446L153.699 37.7148L151.302 43.0805H153.854L160.324 28.041H157.643ZM136.249 38.2565H138.621V22.3142H136.249V38.2565Z" fill="white"/>
  <path d="M13.3002 9.62211C12.8878 10.1122 12.7073 10.7572 12.7331 11.4021V39.5978C12.6816 40.2427 12.9136 40.8877 13.326 41.3778L13.4033 41.481L29.1521 25.6934V25.3065L13.4033 9.51892L13.3002 9.62211Z" fill="url(#paint0_linear_205_222)"/>
  <path d="M34.4103 30.9561L29.1779 25.6935V25.3066L34.4103 20.0441L34.5135 20.1215L40.7769 23.6556C42.5554 24.6617 42.5554 26.3127 40.7769 27.3445L34.5392 30.8787L34.4103 30.9561Z" fill="url(#paint1_linear_205_222)"/>
  <path d="M34.5649 30.9042L29.1778 25.5127L13.3001 41.4034C14.0476 42.0741 15.1559 42.0999 15.9292 41.4808L34.5649 30.9042Z" fill="url(#paint2_linear_205_222)"/>
  <path d="M34.5649 20.1213L15.9292 9.54464C15.1559 8.92552 14.0476 8.95132 13.3001 9.62203L29.1778 25.5128L34.5649 20.1213Z" fill="url(#paint3_linear_205_222)"/>
  <path opacity="0.2" d="M34.4103 30.7753L15.955 41.3003C15.2075 41.8678 14.1507 41.8678 13.4033 41.3003L13.3259 41.3777L13.4033 41.4809C14.1507 42.0484 15.2075 42.0484 15.955 41.4809L34.5649 30.9042L34.4103 30.7753Z" fill="#051938"/>
  <path opacity="0.12" d="M13.3001 41.2231C12.8877 40.7072 12.6815 40.0623 12.7331 39.4174V39.5979C12.6815 40.2429 12.9135 40.8878 13.3259 41.3779L13.4032 41.3005L13.3001 41.2231Z" fill="#051938"/>
  <path opacity="0.12" d="M40.7768 27.1637L34.4103 30.7752L34.5134 30.9042L40.7768 27.3443C41.5243 27.0347 42.0398 26.3124 42.1172 25.5127C41.9625 26.235 41.447 26.8541 40.7768 27.1637Z" fill="#051938"/>
  <path opacity="0.25" d="M15.9293 9.72527L40.7511 23.8618C41.447 24.1714 41.9367 24.7905 42.0914 25.5128C42.0141 24.6873 41.4986 23.9908 40.7511 23.6813L15.9293 9.54469C14.1765 8.51283 12.7331 9.36412 12.7331 11.4021V11.5826C12.7331 9.54469 14.1765 8.7192 15.9293 9.72527Z" fill="white"/>
  <path d="M53.6389 18.1865H52.7109V15.6327H53.51C54.2317 14.8588 54.5668 13.8011 54.4379 12.7434V8.92554H59.5414V15.6327H60.392V18.1865H59.4383V16.5871H53.6389V18.1865ZM55.4174 12.7434C55.4689 13.7753 55.2112 14.7814 54.6956 15.6585H58.5104V9.88001H55.4174V12.7434Z" fill="white"/>
  <path d="M68.0474 15.581C67.2999 16.3291 66.2947 16.7418 65.2379 16.7418C64.1811 16.7418 63.1758 16.3291 62.4283 15.581C61.6808 14.8329 61.2942 13.801 61.32 12.7434C61.2942 11.6857 61.7066 10.6796 62.4283 9.90572C63.1758 9.15762 64.1811 8.74487 65.2379 8.74487C66.2947 8.74487 67.2999 9.15762 68.0474 9.90572C68.7949 10.6538 69.2073 11.6857 69.1815 12.7434C69.2073 13.801 68.7949 14.8329 68.0474 15.581ZM63.1758 14.9361C63.7171 15.5036 64.4646 15.8132 65.2636 15.8132C66.0369 15.839 66.8102 15.5036 67.3515 14.9361C67.9185 14.3427 68.2278 13.5688 68.2021 12.7434C68.2278 11.9179 67.9185 11.144 67.3515 10.5506C66.8102 9.98311 66.0627 9.67355 65.2636 9.67355C64.4904 9.67355 63.7171 9.98311 63.1758 10.5506C62.6088 11.144 62.2995 11.9179 62.3252 12.7434C62.2995 13.5688 62.6088 14.3685 63.1758 14.9361Z" fill="white"/>
  <path d="M74.1304 16.7422C73.0994 16.768 72.0941 16.3553 71.3466 15.6072C70.5734 14.8591 70.161 13.8272 70.2125 12.7437C70.1867 11.6861 70.5991 10.6542 71.3466 9.90609C72.0941 9.15799 73.1251 8.74524 74.1819 8.77104C75.2645 8.74524 76.2955 9.20958 76.9915 10.0351L76.2955 10.7058C75.78 10.0609 75.0068 9.67392 74.1562 9.72551C73.3571 9.69972 72.6096 10.0093 72.0426 10.5768C71.4497 11.1443 71.1146 11.944 71.1404 12.7695C71.1146 13.595 71.424 14.3947 71.991 14.988C72.5581 15.5556 73.3056 15.8651 74.1046 15.8393C75.0068 15.8393 75.8573 15.4266 76.4244 14.7301L77.1203 15.4008C76.7595 15.8135 76.3471 16.1489 75.8573 16.4069C75.3161 16.6132 74.7232 16.7422 74.1304 16.7422Z" fill="white"/>
  <path d="M81.1414 16.5871H80.1619V9.88001H78.0225V8.92554H83.2549V9.88001H81.1414V16.5871Z" fill="white"/>
  <path d="M90.0081 8.92558L87.1212 15.3747C86.9666 15.8907 86.6057 16.3292 86.116 16.5614C85.6262 16.7936 85.0592 16.7936 84.5694 16.5614L84.8272 15.6585C84.9818 15.7359 85.1623 15.7875 85.3427 15.7875C85.5231 15.7875 85.7293 15.7359 85.884 15.6585C86.0386 15.5295 86.1675 15.3747 86.2191 15.1684L86.5026 14.5492L83.925 8.89978H85.0849L86.9666 13.2852L88.8482 8.89978H90.0081V8.92558Z" fill="white"/>
  <path d="M91.1164 16.5871V8.92554H96.6581V16.5871H95.6787V9.88001H92.0959V16.5871H91.1164Z" fill="white"/>
  <path d="M98.3851 16.5871V8.92554H99.3645V12.2017H103.205V8.92554H104.185V16.5871H103.205V13.1304H99.3645V16.5871H98.3851Z" fill="white"/>
  <path d="M112.201 15.581C111.453 16.3291 110.448 16.7418 109.391 16.7418C108.334 16.7418 107.329 16.3291 106.582 15.581C105.834 14.8329 105.422 13.801 105.448 12.7434C105.422 11.6857 105.834 10.6538 106.582 9.90572C107.329 9.15762 108.334 8.74487 109.365 8.74487C110.422 8.74487 111.428 9.15762 112.149 9.90572C112.897 10.6538 113.309 11.6857 113.283 12.7434C113.361 13.801 112.948 14.8329 112.201 15.581ZM107.303 14.9361C107.845 15.5036 108.592 15.8132 109.391 15.8132C110.165 15.8132 110.938 15.5036 111.479 14.9361C112.046 14.3427 112.355 13.5688 112.33 12.7434C112.355 11.9179 112.046 11.144 111.479 10.5506C110.938 9.98311 110.19 9.67355 109.391 9.67355C108.618 9.64776 107.845 9.98311 107.303 10.5506C106.736 11.144 106.427 11.9179 106.453 12.7434C106.427 13.5688 106.736 14.3685 107.303 14.9361Z" fill="white"/>
  <path d="M117.33 16.5871V8.92554H120.088C120.655 8.92554 121.222 9.13191 121.635 9.51886C122.073 9.90581 122.305 10.4475 122.305 11.0151C122.305 11.3504 122.202 11.6858 122.021 11.9953C121.841 12.2791 121.583 12.4855 121.274 12.6145C121.635 12.7434 121.97 12.9756 122.202 13.2852C122.434 13.5947 122.563 13.9817 122.563 14.3686C122.588 14.962 122.331 15.5295 121.867 15.9164C121.428 16.3292 120.836 16.5613 120.243 16.5355L117.33 16.5871ZM118.31 12.2017H120.088C120.423 12.2275 120.758 12.0727 120.99 11.8406C121.196 11.6342 121.325 11.3504 121.325 11.0409C121.325 10.7313 121.222 10.4475 121.042 10.2154C120.836 9.9832 120.501 9.85422 120.191 9.85422H118.31V12.2017ZM118.31 15.6327H120.294C120.655 15.6585 120.99 15.5037 121.222 15.2457C121.454 15.0135 121.557 14.704 121.557 14.3686C121.557 14.0591 121.428 13.7495 121.196 13.5173C120.939 13.2594 120.604 13.1046 120.243 13.1304H118.31V15.6327Z" fill="white"/>
  <defs>
    <linearGradient id="paint0_linear_205_222" x1="22.6962" y1="11.1849" x2="9.16205" y2="24.7107" gradientUnits="userSpaceOnUse">
      <stop stop-color="#4696D2"/>
      <stop offset="0.01" stop-color="#4598D3"/>
      <stop offset="0.26" stop-color="#3FB9EB"/>
      <stop offset="0.51" stop-color="#4AC1ED"/>
      <stop offset="0.76" stop-color="#5CC4E6"/>
      <stop offset="1" stop-color="#60C4E5"/>
    </linearGradient>
    <linearGradient id="paint1_linear_205_222" x1="43.1016" y1="25.5049" x2="12.28" y2="25.5049" gradientUnits="userSpaceOnUse">
      <stop stop-color="#FFE00A"/>
      <stop offset="0.41" stop-color="#FBBC0F"/>
      <stop offset="0.78" stop-color="#F7A418"/>
      <stop offset="1" stop-color="#F59A1B"/>
    </linearGradient>
    <linearGradient id="paint2_linear_205_222" x1="30.2384" y1="29.3494" x2="7.08527" y2="52.4734" gradientUnits="userSpaceOnUse">
      <stop stop-color="#E8404A"/>
      <stop offset="1" stop-color="#C31262"/>
    </linearGradient>
    <linearGradient id="paint3_linear_205_222" x1="7.90327" y1="8.75135" x2="18.2362" y2="19.0767" gradientUnits="userSpaceOnUse">
      <stop stop-color="#32A071"/>
      <stop offset="0.07" stop-color="#2DA771"/>
      <stop offset="0.48" stop-color="#4FB26F"/>
      <stop offset="0.8" stop-color="#61B668"/>
      <stop offset="1" stop-color="#64B664"/>
    </linearGradient>
  </defs>
</svg>