<svg width="61" height="60" viewBox="0 0 61 60" fill="none" xmlns="http://www.w3.org/2000/svg">
<g clip-path="url(#clip0_83_1370)">
<path d="M30.667 0.000427246C14.0982 0.000427246 0.666626 13.4306 0.666626 30.0008C0.666626 46.5681 14.0982 59.9997 30.667 59.9997C47.235 59.9997 60.6666 46.5681 60.6666 30.0008C60.6666 13.4306 47.235 0.000427246 30.667 0.000427246Z" fill="#204EE9"/>
<path d="M27.1833 19.9927V20.7603C27.8522 20.7603 28.3641 20.8391 28.7183 20.9966C28.9445 21.095 29.0578 21.2768 29.0578 21.5427C29.0578 21.6903 29.0232 21.8625 28.9545 22.0592L24.1132 35.3431L19.6853 22.0592C19.636 21.882 19.6115 21.7249 19.6115 21.5868C19.6115 21.3017 19.7246 21.1049 19.951 20.9966C20.2855 20.8391 20.7872 20.7603 21.4565 20.7603V19.9927H14.9622V20.7603C15.4736 20.7603 15.8574 20.8391 16.1134 20.9966C16.3692 21.1541 16.5758 21.5083 16.7334 22.0592L22.8145 40.0072H23.7L30.4306 22.0592C30.6668 21.5083 30.8929 21.1541 31.1095 20.9966C31.3258 20.8391 31.6901 20.7603 32.2017 20.7603V19.9927H27.1833Z" fill="white"/>
<path d="M37.899 20.9966C38.1547 20.8391 38.6171 20.7603 39.2864 20.7603V19.9927H32.7921V20.7603C33.461 20.7603 33.9235 20.8391 34.1796 20.9966C34.4352 21.1541 34.5633 21.5083 34.5633 22.0592V38.059C34.5633 38.4921 34.4352 38.7971 34.1796 38.9741C33.9236 39.1513 33.4612 39.2398 32.7921 39.2398V40.0072H39.2864V39.2398C38.6172 39.2398 38.1548 39.1513 37.899 38.9741C37.643 38.797 37.5152 38.4921 37.5152 38.059V22.0592C37.5152 21.5083 37.643 21.1541 37.899 20.9966Z" fill="white"/>
<path d="M44.9838 20.9966C45.2396 20.8391 45.7019 20.7603 46.3712 20.7603V19.9927H39.8768V20.7603C40.5459 20.7603 41.0083 20.8391 41.2644 20.9966C41.52 21.1541 41.6482 21.5083 41.6482 22.0592V38.059C41.6482 38.4921 41.52 38.7971 41.2644 38.9741C41.0084 39.1513 40.5461 39.2398 39.8768 39.2398V40.0072H46.3712V39.2398C45.702 39.2398 45.2397 39.1513 44.9838 38.9741C44.7278 38.797 44.6001 38.4921 44.6001 38.059V22.0592C44.6001 21.5083 44.7278 21.1541 44.9838 20.9966Z" fill="white"/>
</g>
<defs>
<clipPath id="clip0_83_1370">
<rect width="60" height="60" fill="white" transform="translate(0.666626)"/>
</clipPath>
</defs>
</svg>
