<svg width="60" height="60" viewBox="0 0 60 60" fill="none" xmlns="http://www.w3.org/2000/svg">
<path d="M0.477402 5.78879L0.666495 5.9381C4.41207 8.90521 4.33211 14.621 0.506491 17.4861C0.281029 17.6573 0.401029 18.0177 0.684674 18.0177H57.0138C57.1194 18.0177 57.2215 17.974 57.2902 17.8939C60.4506 14.4244 60.5233 9.14181 57.465 5.58127L57.2942 5.38471C57.2215 5.30094 57.116 5.25 57.0029 5.25H0.666495C0.37921 5.25 0.255575 5.6104 0.477402 5.78879Z" fill="#FF5500"/>
<path d="M0.477402 23.8754L0.666495 24.0247C4.41207 26.9918 4.33211 32.7076 0.506491 35.5727C0.281029 35.7439 0.401029 36.1043 0.684674 36.1043H57.0138C57.1194 36.1043 57.2215 36.0606 57.2902 35.9805C60.4506 32.511 60.5233 27.2284 57.465 23.6679L57.2942 23.4713C57.2215 23.3875 57.116 23.3366 57.0029 23.3366H0.666495C0.37921 23.3366 0.255575 23.697 0.477402 23.8754Z" fill="#FF5500"/>
<path d="M0.477402 41.9584L0.666495 42.1077C4.41207 45.0784 4.33211 50.7906 0.506491 53.6556C0.281029 53.8269 0.401029 54.1875 0.684674 54.1875H57.0138C57.1194 54.1875 57.2215 54.1437 57.2902 54.0635C60.4506 50.594 60.5233 45.3114 57.465 41.7509L57.2942 41.5543C57.2215 41.4669 57.116 41.4196 57.0029 41.4196H0.666495C0.37921 41.4196 0.255575 41.78 0.477402 41.9584Z" fill="#FF5500"/>
<path d="M37.3171 5.25363L37.4916 5.39198C41.5863 8.63942 41.4991 14.8868 37.3171 18.0177H56.9285C57.034 18.0177 57.1362 17.974 57.2048 17.8939C60.3652 14.4244 60.4379 9.14181 57.3796 5.58127L57.2089 5.38471C57.1362 5.30094 57.0306 5.25 56.9181 5.25H37.3171V5.25363Z" fill="#6262D9"/>
<path d="M26.1911 23.3366L26.3656 23.475C30.4603 26.7224 30.373 32.9697 26.1911 36.1007H57.0138C57.1194 36.1007 57.2215 36.057 57.2902 35.9769C60.4506 32.5074 60.5233 27.2248 57.465 23.6643L57.2942 23.4677C57.2215 23.384 57.116 23.333 57.0029 23.333H26.1911V23.3366Z" fill="#3D3DC7"/>
<path d="M13.427 41.4195L13.6015 41.5579C17.6962 44.8053 17.609 51.0526 13.427 54.1834H57.0138C57.1194 54.1834 57.2215 54.1402 57.2902 54.06C60.4506 50.5903 60.5233 45.3078 57.465 41.7472L57.2942 41.5506C57.2215 41.4633 57.116 41.4159 57.0029 41.4159H13.427V41.4195Z" fill="#0A1E78"/>
</svg>
