<svg width="71" height="70" viewBox="0 0 71 70" fill="none" xmlns="http://www.w3.org/2000/svg">
<g clip-path="url(#clip0_83_1354)">
<path d="M0.666626 33.6001C0.666626 17.7608 0.666626 9.84127 5.58723 4.92067C10.5078 6.10352e-05 18.4274 6.10352e-05 34.2666 6.10352e-05H37.0666C52.9059 6.10352e-05 60.8254 6.10352e-05 65.7461 4.92067C70.6666 9.84127 70.6666 17.7608 70.6666 33.6001V36.4001C70.6666 52.2393 70.6666 60.1588 65.7461 65.0795C60.8254 70.0001 52.9059 70.0001 37.0666 70.0001H34.2666C18.4274 70.0001 10.5078 70.0001 5.58723 65.0795C0.666626 60.1588 0.666626 52.2393 0.666626 36.4001V33.6001Z" fill="#0077FF"/>
<path d="M37.6047 48.8462C22.118 48.8462 13.2847 38.2292 12.9167 20.5624H20.6742C20.929 33.5294 26.6479 39.0219 31.1778 40.1544V20.5624H38.4826V31.7457C42.9559 31.2644 47.6551 26.1682 49.2406 20.5624H56.5453C55.3279 27.4706 50.2317 32.5667 46.6077 34.6618C50.2317 36.3606 56.0359 40.8056 58.2443 48.8462H50.2034C48.4763 43.4669 44.1733 39.305 38.4826 38.7388V48.8462H37.6047Z" fill="white"/>
</g>
<defs>
<clipPath id="clip0_83_1354">
<rect width="70" height="70" fill="white" transform="translate(0.666626)"/>
</clipPath>
</defs>
</svg>
